<svg width="29" height="29" viewBox="0 0 29 29" fill="none" xmlns="http://www.w3.org/2000/svg">
<path d="M14.5 0C6.50429 0 0 6.50429 0 14.5C0 22.4957 6.50429 29 14.5 29C22.4957 29 29 22.4957 29 14.5C29 6.50429 22.4957 0 14.5 0ZM14.5 5.17857C17.3477 5.17857 19.6786 7.5094 19.6786 10.3571C19.6786 13.2049 17.3477 15.5357 14.5 15.5357C11.6523 15.5357 9.32143 13.2049 9.32143 10.3571C9.32143 7.5094 11.6523 5.17857 14.5 5.17857ZM10.3571 17.6071H18.6429C21.4707 17.6071 23.7798 19.8977 23.8173 22.7171C21.5417 25.2966 18.2191 26.9286 14.5 26.9286C10.7809 26.9286 7.45833 25.2964 5.18271 22.7171C5.22017 19.898 7.52946 17.6071 10.3574 17.6071H10.3571Z" fill="white"/>
</svg>
