<svg width="24" height="24" viewBox="0 0 24 24" fill="none" xmlns="http://www.w3.org/2000/svg">
<g opacity="0.8">
<path d="M15 18C14.7 18 14.5 17.9 14.3 17.7C13.9 17.3 13.9 16.7 14.3 16.3L19.3 11.3C19.7 10.9 20.3 10.9 20.7 11.3C21.1 11.7 21.1 12.3 20.7 12.7L15.7 17.7C15.5 17.9 15.3 18 15 18Z" fill="black"/>
<path d="M20 13C19.7 13 19.5 12.9 19.3 12.7L14.3 7.7C13.9 7.3 13.9 6.7 14.3 6.3C14.7 5.9 15.3 5.9 15.7 6.3L20.7 11.3C21.1 11.7 21.1 12.3 20.7 12.7C20.5 12.9 20.3 13 20 13Z" fill="black"/>
<path d="M20 13H4C3.4 13 3 12.6 3 12C3 11.4 3.4 11 4 11H20C20.6 11 21 11.4 21 12C21 12.6 20.6 13 20 13Z" fill="black"/>
</g>
</svg>
