<svg width="57" height="55" viewBox="0 0 54 52" fill="none" xmlns="http://www.w3.org/2000/svg">
<path d="M48.2759 23.5225V21.1929C48.2759 13.6218 44.2199 6.62652 37.6352 2.83966C31.0505 -0.947203 22.9385 -0.945904 16.3538 2.83966C9.76913 6.62523 5.71441 13.6218 5.71441 21.1929V23.5225C3.17271 24.387 1.19496 26.4032 0.389495 28.9551C-0.417271 31.5057 0.0448569 34.2877 1.63097 36.4456C3.21709 38.6036 5.74052 39.8815 8.42713 39.8867H10.32C10.7077 39.8867 11.0798 39.7333 11.3539 39.4603C11.6281 39.1873 11.7821 38.8168 11.7821 38.4307V24.5482C11.7821 24.1621 11.6281 23.7916 11.3539 23.5186C11.0798 23.2456 10.7077 23.0922 10.32 23.0922H8.63861V21.1916C8.63861 14.6604 12.1372 8.62591 17.8172 5.36034C23.4972 2.09477 30.4944 2.09477 36.1744 5.36034C41.8544 8.62591 45.353 14.6604 45.353 21.1916V23.0922H43.6716C42.8648 23.0922 42.2095 23.7435 42.2095 24.5482V38.4528C42.2147 38.9988 42.5241 39.4954 43.0136 39.7411C41.8674 41.7769 40.344 43.5774 38.5255 45.0477C38.0568 44.1221 37.3362 43.3473 36.4446 42.8117C35.5543 42.2761 34.5295 42.0018 33.4891 42.0187H31.121C29.6406 42.0213 28.2229 42.6063 27.1759 43.6476C26.129 44.6889 25.5389 46.1007 25.535 47.5735V50.1878C25.5285 50.2476 25.5285 50.3087 25.535 50.3698C25.5285 50.4283 25.5285 50.4855 25.535 50.544C25.535 50.9301 25.689 51.3006 25.9632 51.5736C26.2373 51.8466 26.6094 52 26.9971 52C31.0322 51.9948 34.9825 50.8482 38.3884 48.6954C41.7943 46.5413 44.5175 43.4695 46.2381 39.8347C48.8385 39.628 51.1962 38.2344 52.623 36.0608C54.0512 33.8873 54.3893 31.1794 53.5394 28.7224C52.6896 26.2654 50.7458 24.3415 48.2772 23.5056V23.5199L48.2759 23.5225ZM8.85793 26.0054V36.9981H8.42713C6.4559 36.9981 4.6322 35.9503 3.64658 34.25C2.66097 32.5496 2.66097 30.454 3.64658 28.7536C4.6322 27.0532 6.4546 26.0054 8.42713 26.0054H8.85793ZM28.4579 49.0321V47.5761C28.4605 46.8741 28.7412 46.2021 29.2399 45.7068C29.7385 45.2115 30.4148 44.9333 31.1184 44.9333H33.4865C34.053 44.9008 34.6131 45.0568 35.0778 45.3792C35.5439 45.7016 35.8872 46.1696 36.0517 46.709C33.7228 48.0311 31.1288 48.8241 28.4566 49.0308L28.4579 49.0321ZM45.5645 36.976H45.1337V26.0054H45.5645C47.537 26.0054 49.3594 27.0532 50.345 28.7536C51.3306 30.454 51.3306 32.5496 50.345 34.25C49.3594 35.9503 47.537 36.9981 45.5645 36.9981V36.976Z" fill="#9E76FE"/>
</svg>
