<svg width="31" height="21" viewBox="0 0 31 21" fill="none" xmlns="http://www.w3.org/2000/svg">
<path d="M20.4998 20.5003C19.9873 20.5003 19.6457 20.3295 19.304 19.9878C18.6207 19.3045 18.6207 18.2795 19.304 17.5962L27.8457 9.05449C28.529 8.37116 29.554 8.37116 30.2373 9.05449C30.9207 9.73783 30.9207 10.7628 30.2373 11.4462L21.6957 19.9878C21.354 20.3295 21.0123 20.5003 20.4998 20.5003Z" fill="#0085FF"/>
<path d="M29.0415 11.9583C28.529 11.9583 28.1873 11.7875 27.8457 11.4458L19.304 2.90417C18.6207 2.22083 18.6207 1.19583 19.304 0.5125C19.9873 -0.170833 21.0123 -0.170833 21.6957 0.5125L30.2373 9.05417C30.9207 9.7375 30.9207 10.7625 30.2373 11.4458C29.8957 11.7875 29.554 11.9583 29.0415 11.9583Z" fill="#0085FF"/>
<path d="M29.0417 11.9587H1.70833C0.683333 11.9587 0 11.2753 0 10.2503C0 9.22533 0.683333 8.54199 1.70833 8.54199H29.0417C30.0667 8.54199 30.75 9.22533 30.75 10.2503C30.75 11.2753 30.0667 11.9587 29.0417 11.9587Z" fill="#0085FF"/>
</svg>
