<svg width="48" height="55" viewBox="0 0 54 62" fill="none" xmlns="http://www.w3.org/2000/svg">
<path d="M37.4167 31.8923V54.2712C37.4167 57.4352 34.9362 60.0003 31.8242 60.0003H7.59896C4.48047 60.0003 2 57.4352 2 54.2712V19.8962C2.00888 18.3794 2.61534 16.9273 3.68785 15.8548C4.76036 14.7823 6.21244 14.1759 7.72917 14.167H19.9844C20.4086 14.1676 20.8284 14.2527 21.2194 14.4172C21.6104 14.5818 21.9647 14.8225 22.2617 15.1253L36.474 29.5785C37.0786 30.1968 37.4171 31.0274 37.4167 31.8923V31.8923Z" stroke="#3A96E8" stroke-width="3" stroke-linejoin="round"/>
<path d="M19.7085 14.167V28.2295C19.72 29.1929 20.1078 30.1135 20.789 30.7948C21.4703 31.476 22.391 31.8638 23.3543 31.8753H37.4168" stroke="#3A96E8" stroke-width="3" stroke-linecap="round" stroke-linejoin="round"/>
<path d="M16.5835 14.167V7.39616C16.5924 5.87943 17.1988 4.42735 18.2713 3.35484C19.3439 2.28234 20.7959 1.67588 22.3127 1.66699H34.5522C34.9788 1.66759 35.401 1.75257 35.7945 1.91704C36.188 2.08152 36.5451 2.32223 36.8452 2.62533L51.0575 17.0785C51.6617 17.6902 52.0004 18.5155 52.0002 19.3753V41.7712C52.0002 44.9352 49.5197 47.5003 46.4077 47.5003H38.4585" stroke="#3A96E8" stroke-width="3" stroke-linejoin="round"/>
<path d="M34.2915 1.66699V15.7295C34.303 16.6929 34.6908 17.6135 35.372 18.2948C36.0533 18.976 36.974 19.3638 37.9373 19.3753H51.9998" stroke="#3A96E8" stroke-width="3" stroke-linecap="round" stroke-linejoin="round"/>
</svg>
