<svg width="59" height="55" viewBox="0 0 60 56" fill="none" xmlns="http://www.w3.org/2000/svg">
<g clip-path="url(#clip0_13_693)">
<path d="M28.0722 48.8639C33.8483 48.8639 39.0784 46.5282 42.8614 42.7546C46.6443 38.981 48.9859 33.7639 48.9859 28.0023C48.9859 22.2406 46.6443 17.0235 42.8614 13.2499C39.0784 9.47637 33.8483 7.14067 28.0722 7.14067C22.2961 7.14067 17.066 9.47637 13.283 13.2499C9.50003 17.0235 7.1585 22.2406 7.1585 28.0023C7.1585 33.7639 9.50003 38.981 13.283 42.7546C17.066 46.5282 22.2961 48.8639 28.0722 48.8639ZM29.6612 13.1922V26.4172H35.8969V29.5885H26.4832V13.1922H29.6612ZM28.0722 3.17011C21.1974 3.17011 14.9719 5.94962 10.4705 10.4421C5.96674 14.9346 3.1803 21.1435 3.1803 28C3.1803 34.8565 5.96674 41.0676 10.4705 45.5579C14.9742 50.0504 21.1986 52.8299 28.0722 52.8299C34.9458 52.8299 41.1725 50.0504 45.6739 45.5579C50.1822 41.062 52.9698 34.8508 52.9698 28L52.9618 24.6793L60 30.3708L58.0024 32.8231L55.9582 31.1701C55.2296 37.6371 52.2933 43.4362 47.9212 47.7996C42.8421 52.8661 35.8243 56.0011 28.0733 56.0011C20.3223 56.0011 13.3034 52.8661 8.22314 47.7996C3.14284 42.732 0 35.7294 0 28C0 20.2706 3.14284 13.2669 8.22201 8.20153C13.3012 3.13501 20.3212 0 28.0699 0V3.17124H28.0722V3.17011ZM45.1075 44.9941C40.748 49.3439 34.7245 52.034 28.0722 52.034C21.4199 52.034 15.3975 49.3428 11.0368 44.9941C6.67613 40.6442 3.97934 34.6357 3.97934 28.0011C3.97934 21.3665 6.67726 15.3558 11.0368 11.0082C15.3975 6.65836 21.421 3.9683 28.0722 3.9683C34.7233 3.9683 40.7491 6.6595 45.1075 11.0082C49.4683 15.3569 52.165 21.3654 52.165 28.0011C52.165 34.6369 49.4671 40.6442 45.1075 44.9941Z" fill="#00DAA7"/>
</g>
<defs>
<clipPath id="clip0_13_693">
<rect width="60" height="56" fill="white"/>
</clipPath>
</defs>
</svg>
