<svg width="21" height="20" viewBox="0 0 21 20" fill="none" xmlns="http://www.w3.org/2000/svg">
<path d="M20.8393 8.14408L16.0553 12.8019L17.1845 19.3787C17.2191 19.578 17.1374 19.7794 16.9737 19.8985C16.8099 20.0175 16.5928 20.0329 16.4137 19.9384L10.5 16.8333L4.5867 19.9384C4.40752 20.0325 4.19042 20.0166 4.02666 19.898C3.8629 19.779 3.78081 19.578 3.81498 19.3787L4.94463 12.8019L0.160182 8.1445C0.0155899 8.00341 -0.0369132 7.79241 0.0255905 7.60056C0.0880942 7.40829 0.254354 7.26845 0.454783 7.23932L7.06643 6.27963L10.0233 0.295899C10.1129 0.114447 10.2975 0 10.5 0C10.7025 0 10.8871 0.114864 10.9767 0.295899L13.9335 6.27963L20.5451 7.23932C20.7452 7.26845 20.9118 7.40829 20.9743 7.60056C21.0368 7.79283 20.9848 8.00383 20.8397 8.1445L20.8393 8.14408Z" fill="#F25C63"/>
</svg>
