<svg width="30" height="30" viewBox="0 0 34 34" fill="none" xmlns="http://www.w3.org/2000/svg">
<path d="M17 4.97416C18.1964 4.97416 19.28 5.4595 20.0641 6.24387C20.8483 7.02805 21.3338 8.11178 21.3338 9.30805C21.3338 10.5045 20.8485 11.588 20.0641 12.3722C19.28 13.1564 18.1962 13.6419 17 13.6419C15.8035 13.6419 14.72 13.1566 13.9358 12.3722C13.1516 11.588 12.6661 10.5043 12.6661 9.30805C12.6661 8.11159 13.1514 7.02805 13.9358 6.24387C14.72 5.45968 15.8037 4.97416 17 4.97416ZM24.2925 16.575C25.4848 16.575 26.5642 17.0584 27.3454 17.8397C28.1268 18.621 28.6102 19.7012 28.6102 20.8927C28.6102 22.0846 28.1267 23.164 27.3454 23.9453C26.5641 24.7266 25.484 25.21 24.2925 25.21C23.1006 25.21 22.0212 24.7266 21.2399 23.9453C20.4585 23.164 19.9751 22.0846 19.9751 20.8927C19.9751 19.7012 20.4585 18.621 21.2399 17.8397C22.0212 17.0584 23.1006 16.575 24.2925 16.575ZM23.8164 18.4074V20.4163H21.8076C21.5448 20.4163 21.3315 20.6295 21.3315 20.8923C21.3315 21.1551 21.5448 21.3684 21.8076 21.3684H23.8164V23.3772C23.8164 23.64 24.0297 23.8533 24.2925 23.8533C24.5553 23.8533 24.7685 23.64 24.7685 23.3772V21.3684H26.7774C27.0402 21.3684 27.2534 21.1551 27.2534 20.8923C27.2534 20.6295 27.0402 20.4163 26.7774 20.4163H24.7685V18.4074C24.7685 18.1446 24.5553 17.9314 24.2925 17.9314C24.0297 17.9314 23.8164 18.1446 23.8164 18.4074ZM21.3057 24.8431C21.5509 24.7496 21.8258 24.8729 21.9193 25.1181C22.0129 25.3632 21.8895 25.6381 21.6444 25.7317C20.9181 26.0098 20.155 26.2261 19.3648 26.3716C18.5924 26.5139 17.8017 26.5885 17.0003 26.5885C13.414 26.5885 10.1673 25.1344 7.8169 22.7838C5.46629 20.4334 4.01221 17.1864 4.01221 13.6004C4.01221 10.0141 5.46634 6.76737 7.8169 4.417C10.1673 2.06639 13.4143 0.612305 17.0003 0.612305C20.5866 0.612305 23.8333 2.06644 26.1837 4.417C28.5343 6.76742 29.9884 10.0144 29.9884 13.6004C29.9884 14.402 29.9135 15.1928 29.7715 15.9647C29.626 16.7553 29.4097 17.518 29.1316 18.2447C29.038 18.4898 28.7631 18.6131 28.518 18.5196C28.2728 18.426 28.1495 18.1511 28.243 17.906C28.5035 17.2256 28.7043 16.5188 28.838 15.7937C28.9678 15.0884 29.0363 14.3552 29.0363 13.6004C29.0363 10.2767 27.689 7.26718 25.5111 5.08973C23.3335 2.91198 20.3241 1.56451 17.0004 1.56451C13.6767 1.56451 10.6672 2.91178 8.48971 5.08973C6.31197 7.26728 4.9645 10.2767 4.9645 13.6004C4.9645 16.9242 6.31177 19.9336 8.48971 22.1111C10.6673 24.2888 13.6767 25.6363 17.0004 25.6363C17.755 25.6363 18.4881 25.5678 19.1939 25.438C19.9187 25.3045 20.626 25.1035 21.3058 24.843L21.3057 24.8431ZM19.3917 6.91687C18.7804 6.30556 17.9344 5.92665 17.0004 5.92665C16.0661 5.92665 15.2203 6.30536 14.609 6.91687C13.9977 7.52819 13.6188 8.37421 13.6188 9.30824C13.6188 10.2425 13.9975 11.0883 14.609 11.6996C15.2203 12.3109 16.0663 12.6898 17.0004 12.6898C17.9346 12.6898 18.7804 12.3111 19.3917 11.6996C20.003 11.0883 20.382 10.2423 20.382 9.30824C20.382 8.37402 20.0032 7.52819 19.3917 6.91687ZM19.4344 22.4044C19.6962 22.388 19.922 22.5869 19.9385 22.8487C19.9549 23.1105 19.756 23.3363 19.4942 23.3528C18.681 23.4048 17.8346 23.4316 16.9986 23.4316C15.1395 23.4316 13.2742 23.3054 11.8612 23.0538C10.2559 22.7679 9.16781 22.2615 9.11923 21.5043L9.11639 19.5751C9.11639 18.1589 9.69604 16.8706 10.629 15.9377C11.5638 15.0048 12.8511 14.4252 14.2663 14.4252H19.735C20.3296 14.4252 20.9041 14.5286 21.4399 14.7179C21.9934 14.9135 22.5053 15.2023 22.9549 15.5647C23.1593 15.7288 23.1917 16.028 23.0276 16.2324C22.8635 16.4367 22.5643 16.4691 22.3599 16.305C21.9934 16.0098 21.5757 15.774 21.1236 15.6144C20.6903 15.4615 20.2222 15.3776 19.7348 15.3776H14.2661C13.1112 15.3776 12.0612 15.8499 11.3008 16.6099C10.5408 17.3713 10.0685 18.4209 10.0685 19.5752V21.4485C10.0911 21.6778 10.8688 21.911 12.025 22.1171C13.3806 22.3586 15.1872 22.4795 16.9987 22.4795C17.8347 22.4795 18.661 22.4544 19.4345 22.4045L19.4344 22.4044Z" fill="white"/>
</svg>
