<svg width="13" height="12" viewBox="0 0 13 12" fill="none" xmlns="http://www.w3.org/2000/svg">
<path fill-rule="evenodd" clip-rule="evenodd" d="M0.325038 12H12.675C12.8544 12 13 11.8622 13 11.6923C13 11.5224 12.8544 11.3845 12.675 11.3845H0.325038C0.145598 11.3845 0 11.5224 0 11.6923C0 11.8622 0.145598 12 0.325038 12ZM4.54679 9.08808C4.64234 9.04564 4.71056 8.96126 4.72819 8.86287C4.74636 8.76438 4.71263 8.66353 4.63787 8.59276L2.80746 6.85921C2.7327 6.78844 2.62606 6.7564 2.52148 6.77371C2.41745 6.79091 2.32844 6.85489 2.2836 6.94544L0.97323 9.5725C0.914685 9.69005 0.940041 9.82974 1.03689 9.92142L1.40349 10.2685C1.50034 10.3602 1.64789 10.3842 1.77204 10.3288L4.54687 9.08818L4.54679 9.08808ZM7.97685 1.52991L2.9971 6.24368C3.09591 6.28798 3.18753 6.34887 3.26686 6.42397L5.09727 8.15751C5.17725 8.23261 5.24091 8.31874 5.2877 8.41229L10.2674 3.69852L7.97685 1.52991ZM8.43638 1.09485L10.727 3.26285L10.2675 3.69854L10.9155 4.31205L9.61282 5.5447C9.48604 5.66472 9.48604 5.85973 9.61282 5.97976C9.74024 6.1004 9.94557 6.1004 10.073 5.97976L11.6051 4.52931C11.7318 4.40929 11.7318 4.21489 11.6051 4.09425L10.7269 3.26287L11.7877 2.25862C11.9144 2.1386 11.9144 1.94358 11.7877 1.82356L9.9566 0.090016C9.82983 -0.0300053 9.62385 -0.0300053 9.49707 0.090016L8.43632 1.09491L8.43638 1.09485Z" fill="white"/>
</svg>
