<svg width="30" height="30" viewBox="0 0 58 58" fill="none" xmlns="http://www.w3.org/2000/svg">
<path d="M41.9919 8.35156H34.5679V12.0636H40.1359V34.3356H34.5679V38.0476H41.9919C42.4807 38.0476 42.953 37.8487 43.301 37.5007C43.649 37.1527 43.8479 36.6804 43.8479 36.1916V10.2076C43.8479 9.7187 43.649 9.24642 43.301 8.89842C42.953 8.55042 42.4807 8.35156 41.9919 8.35156Z" fill="white"/>
<path d="M26.3733 28.7675L28.9999 31.3941L35.877 24.5169C36.225 24.1689 36.4239 23.6966 36.4239 23.2078C36.4239 22.7189 36.225 22.2466 35.877 21.8986L28.9999 15.0215L26.3733 17.6481L30.0853 21.3601H14.1519V25.0721H30.0853L26.3733 28.7675Z" fill="white"/>
</svg>
