<svg width="30" height="30" viewBox="0 0 23 23" fill="none" xmlns="http://www.w3.org/2000/svg">
<g clip-path="url(#clip0_13_763)">
<path d="M21.8116 16.7995L17.1784 14.4031C16.5234 14.0642 15.7229 14.2336 15.262 14.8146L13.564 16.9931C11.9145 16.0975 10.6531 15.2503 9.19766 13.7979C7.64518 12.2487 6.82042 10.9657 5.97141 9.36812L8.13033 7.69788C8.71251 7.23795 8.88231 6.43914 8.54271 5.78557L6.1659 1.18635C5.75353 0.387535 4.71045 0.121264 3.95847 0.629599L1.02288 2.59032C0.343673 3.05024 -0.0444468 3.82442 0.00406822 4.64787C0.0525832 5.49509 0.173871 6.53597 0.367931 7.28637C1.21694 10.5784 3.27883 13.9673 6.16547 16.8479C9.05211 19.7285 12.4482 21.786 15.7472 22.6332C16.4992 22.8269 17.5422 22.9237 18.3912 22.9963C19.216 23.0448 20.0165 22.6574 20.4774 21.9555L22.3937 18.9781C22.8793 18.2277 22.6125 17.211 21.812 16.7995H21.8116Z" fill="white"/>
<path d="M17.1542 11.6675C20.3804 11.6675 23.0002 9.05321 23.0002 5.83375C23.0002 2.61429 20.3804 0 17.1542 0C13.9279 0 11.3081 2.61429 11.3081 5.83375C11.3081 9.05321 13.9279 11.6675 17.1542 11.6675ZM17.1542 2.00913C18.0274 2.00913 18.7309 2.71112 18.7309 3.58255C18.7309 4.18771 18.3913 4.72025 17.8819 4.98652C17.6636 5.10756 17.421 5.18018 17.1542 5.18018C16.8873 5.18018 16.6448 5.10756 16.4264 4.98652C15.917 4.72025 15.5774 4.18771 15.5774 3.58255C15.5774 2.73533 16.2813 2.00913 17.1546 2.00913H17.1542ZM14.2918 8.13336L14.4131 6.89883C14.4858 6.05161 15.068 5.37383 15.82 5.10756C16.1839 5.42224 16.6448 5.61589 17.1784 5.61589C17.7121 5.61589 18.173 5.42224 18.5368 5.10756C19.2888 5.37383 19.871 6.05161 19.9438 6.89883L20.0651 8.13336C20.0893 8.44804 19.8953 8.71432 19.5799 8.78693L17.9061 9.12582C17.421 9.22265 16.9358 9.22265 16.475 9.12582L14.8012 8.78693C14.4616 8.71432 14.2433 8.44804 14.2918 8.13336Z" fill="white"/>
</g>
<defs>
<clipPath id="clip0_13_763">
<rect width="23" height="23" fill="white"/>
</clipPath>
</defs>
</svg>
