<svg width="60" height="61" viewBox="0 0 60 61" fill="none" xmlns="http://www.w3.org/2000/svg">
<g clip-path="url(#clip0_13_758)">
<path d="M0.0107454 36.0963C0.0107454 28.0156 0.0150436 19.936 0 11.8553C0 11.3605 0.124647 11.2265 0.620012 11.2298C4.00267 11.2525 7.38641 11.2298 10.7691 11.2536C11.2988 11.2579 11.4127 11.0958 11.4095 10.5881C11.3869 7.2413 11.4052 3.89343 11.3891 0.546635C11.3869 0.127476 11.4944 0 11.9231 0C18.725 0.0129637 25.5279 -0.0248471 32.3298 0.056176C33.0959 0.0648184 33.9481 0.0993882 34.74 0.399714C35.1892 0.569322 35.7275 0.482897 36.2282 0.637381C36.9138 0.848041 37.6155 1.00361 38.3021 1.22831C38.8383 1.40332 39.3895 1.53728 39.9311 1.71445C40.9014 2.03098 41.7911 2.53332 42.74 2.87794C43.6103 3.19339 44.3647 3.70653 45.1437 4.15486C45.912 4.59671 46.6782 5.07528 47.4067 5.61327C48.2997 6.27334 49.1238 7.01983 50.0211 7.6745C50.7152 8.18224 51.2751 8.8812 51.8725 9.51642C52.9105 10.6183 53.7583 11.8639 54.6384 13.0933C55.7753 14.6792 56.6349 16.3991 57.4419 18.1535C57.761 18.8481 58.006 19.586 58.2693 20.3087C58.5239 21.0076 58.7195 21.7163 58.9301 22.425C59.0816 22.936 59.2084 23.4513 59.3395 23.9655C59.4975 24.5878 59.462 25.2316 59.6866 25.8517C59.8435 26.2828 59.6673 26.8229 59.7521 27.2939C60.0788 29.1013 60.0272 30.9292 59.9101 32.7344C59.8478 33.6883 59.8177 34.6746 59.5781 35.6393C59.4534 36.1406 59.2847 36.6775 59.2933 37.236C59.2987 37.6238 59.0526 37.9922 59.0419 38.4038C59.0397 38.4935 58.8796 38.5788 58.8828 38.7225C58.9312 40.6919 57.819 42.2368 57.0378 43.9112C56.6134 44.8208 56.0299 45.6322 55.6152 46.5483C55.3884 47.0484 55.0059 47.5054 54.6803 47.971C54.0657 48.8504 53.4553 49.7416 52.7526 50.5476C51.9939 51.4183 51.1053 52.1723 50.323 53.0225C49.4612 53.9592 48.4393 54.71 47.4347 55.4532C45.6305 56.7885 43.6157 57.8072 41.5773 58.7298C40.5092 59.2138 39.3723 59.5908 38.2204 59.8879C37.3039 60.1245 36.3572 60.2606 35.4653 60.5534C34.8775 60.7467 34.3188 60.6852 33.746 60.7359C28.2229 61.2285 22.689 60.8677 17.1605 60.9358C11.6126 61.0038 6.06257 60.9444 0.512557 60.9617C0.0472799 60.9628 0.00214909 60.7759 0.00322363 60.3924C0.01182 52.2944 0.00967089 44.1954 0.00967089 36.0974L0.0107454 36.0963ZM6.24202 36.2735C6.24202 42.159 6.24202 48.0445 6.24202 53.93C6.24202 54.6592 6.24202 54.6689 6.95122 54.6581C15.3434 54.5296 23.7399 54.925 32.1299 54.4539C32.7628 54.4183 33.3495 54.0856 33.9986 54.213C34.0405 54.2217 34.0931 54.172 34.1415 54.1493C34.9227 53.7798 35.7769 53.6253 36.5968 53.405C37.1706 53.2505 37.7176 53.0258 38.2366 52.7968C39.0489 52.437 39.8795 52.1075 40.6629 51.6549C41.6848 51.0639 42.6572 50.4017 43.6404 49.7568C44.4829 49.2047 45.1899 48.4755 45.8873 47.7442C46.964 46.6163 48.1481 45.5889 49.068 44.3142C49.7675 43.3451 50.2274 42.2043 51.1365 41.3844C51.1741 41.3509 51.188 41.2904 51.2106 41.2418C51.937 39.7088 52.6709 38.191 52.8568 36.4539C52.9739 35.3584 53.4295 34.29 53.4768 33.1978C53.5789 30.8644 53.5703 28.5212 53.2909 26.192C53.2866 26.1564 53.292 26.1153 53.2759 26.0862C52.802 25.2273 52.7601 24.2367 52.4549 23.3238C52.2099 22.5914 51.9542 21.8622 51.6329 21.1665C50.9592 19.7102 50.2252 18.2972 49.2829 16.9738C48.6779 16.1236 48.0267 15.309 47.3637 14.5215C46.2666 13.2165 44.9374 12.1383 43.5985 11.0742C42.8711 10.4963 42.0963 9.9896 41.3044 9.56396C40.204 8.97303 39.1252 8.30864 37.8992 7.95214C37.0127 7.69394 36.1648 7.32016 35.2579 7.10086C34.8625 7.00579 34.4273 7.05224 34.0877 6.88912C33.1497 6.43755 32.1084 6.34248 31.151 6.31979C26.8571 6.215 22.559 6.27766 18.2629 6.26794C17.9341 6.26794 17.8321 6.37057 17.8363 6.70006C17.8525 8.01372 17.8707 9.32845 17.8288 10.641C17.8127 11.165 17.9997 11.2525 18.465 11.2514C23.0479 11.2363 27.6308 11.2438 32.2137 11.2395C32.78 11.2395 33.3184 11.4232 33.8556 11.5344C34.48 11.663 35.1053 11.8812 35.7221 12.0843C36.441 12.3209 37.1351 12.6137 37.8293 12.901C38.7706 13.291 39.6087 13.8744 40.4673 14.4253C41.4688 15.0692 42.4251 15.7574 43.2418 16.6227C43.6716 17.0786 43.9768 17.6501 44.4743 18.0498C44.9041 18.3955 45.1029 18.927 45.4736 19.331C45.6541 19.5276 45.8841 19.7945 45.9872 20.0969C46.2247 20.8002 46.734 21.3598 46.9823 22.0674C47.2434 22.8118 47.7258 23.4956 47.8827 24.2529C48.0235 24.9324 48.2986 25.5676 48.4136 26.2601C48.5296 26.9537 48.766 27.6623 48.7531 28.3505C48.7198 30.1103 48.9788 31.8755 48.5973 33.6364C48.4856 34.1507 48.3781 34.7016 48.2868 35.2266C48.2266 35.5713 48.1288 35.9969 48.0138 36.3674C47.8602 36.8655 47.5926 37.3116 47.4561 37.8194C47.2982 38.406 47.0156 38.9926 46.7072 39.5101C46.4192 39.9951 46.1441 40.505 45.8121 40.9771C45.3028 41.702 44.859 42.4885 44.2357 43.1107C43.3224 44.0214 42.4896 45.0142 41.428 45.7856C40.837 46.2155 40.2492 46.6801 39.6313 47.0398C38.4708 47.715 37.2222 48.2422 35.9865 48.7769C35.7468 48.8806 35.4718 49.0222 35.2031 49.0276C34.4445 49.0438 33.7761 49.4186 33.0315 49.5364C32.1794 49.6703 31.3025 49.8616 30.4655 49.8702C24.4147 49.9329 18.3639 49.9037 12.3132 49.9037C11.8447 49.9037 11.6101 49.6765 11.6094 49.222C11.6094 39.1611 11.6094 29.1002 11.6094 19.0393C11.6094 18.8956 11.6115 18.7509 11.6115 18.6072C11.6115 18.4549 11.6846 18.3674 11.8372 18.3706C13.0955 18.3955 14.3935 18.16 15.5648 18.8276C16.981 19.6346 17.8267 20.8424 17.831 22.5104C17.8482 29.2774 17.8439 36.0444 17.8267 42.8126C17.8256 43.3138 17.9653 43.437 18.451 43.4337C21.7445 43.4132 25.039 43.4478 28.3325 43.4089C29.4382 43.3959 30.5375 43.5169 31.6614 43.2479C32.6715 43.0059 33.6719 42.7953 34.6143 42.3437C35.9918 41.6826 37.2362 40.8432 38.3429 39.7758C39.1725 38.9764 39.9053 38.1046 40.5071 37.1312C40.7596 36.7218 41.0819 36.3178 41.2249 35.877C41.4527 35.1715 41.7138 34.4661 41.9846 33.7909C42.3048 32.9947 42.322 32.1694 42.5208 31.3699C42.7722 30.3588 42.3381 29.3368 42.3263 28.3105C42.3263 28.2749 42.323 28.2338 42.3048 28.2057C41.8578 27.5327 41.8159 26.7117 41.5225 25.976C41.0078 24.6818 40.3222 23.5302 39.4272 22.4952C38.9157 21.9043 38.3429 21.3652 37.781 20.8197C37.1921 20.2482 36.4958 19.8215 35.7802 19.4358C34.6143 18.8081 33.4624 18.1664 32.1321 17.8942C31.3863 17.7419 30.6632 17.4999 29.8906 17.501C22.5686 17.5031 15.2467 17.501 7.92476 17.501C7.76358 17.501 7.60132 17.4891 7.44121 17.5042C6.40643 17.6047 6.23665 17.7937 6.23665 18.8276C6.23665 24.6407 6.23665 30.4538 6.23665 36.2681L6.24202 36.2735Z" fill="white"/>
</g>
<defs>
<clipPath id="clip0_13_758">
<rect width="60" height="61" fill="white"/>
</clipPath>
</defs>
</svg>
