<svg width="70" height="55" viewBox="0 0 61 48" fill="none" xmlns="http://www.w3.org/2000/svg">
<path opacity="0.7" d="M57.4454 21.884C57.0514 21.884 56.6769 21.9656 56.3241 22.0948L41.2474 31.5671C40.2267 32.2066 38.4219 32.728 37.217 32.728H24.7051C24.1027 32.728 23.6154 32.2371 23.6154 31.6317C23.6154 31.0263 24.1039 30.5353 24.7051 30.5353H36.7054C38.5128 30.5353 39.9783 29.0626 39.9783 27.2463C39.9783 25.4301 38.5128 23.9573 36.7054 23.9573H21.4323C20.2262 23.9573 18.5595 24.6517 17.7086 25.5068L12.7061 30.5341V45.8828H35.0363C37.4473 45.8828 40.8534 44.5684 42.6426 42.9495L59.7497 27.4766L59.7472 27.4741C60.3388 26.8809 60.7061 26.0635 60.7061 25.1572C60.7061 23.3495 59.2442 21.8828 57.4454 21.8828V21.884Z" fill="#64C9FF"/>
<path opacity="0.7" d="M32.4707 10.9412C32.4707 16.9831 37.3687 21.8824 43.4119 21.8824C49.4551 21.8824 54.3531 16.9819 54.3531 10.9412C54.3531 4.90043 49.4551 0 43.4119 0C37.3687 0 32.4707 4.90043 32.4707 10.9412ZM44.506 4.37647V4.79345C45.0762 4.97094 45.6038 5.26757 46.0402 5.704C46.3733 6.0371 46.6432 6.43098 46.8267 6.86863C47.0626 7.42663 46.7988 8.06729 46.2408 8.30192C45.6889 8.53047 45.0445 8.27396 44.8087 7.71839C44.7358 7.54333 44.6288 7.38773 44.4914 7.25278C44.1984 6.95494 43.7353 6.81392 43.4058 6.79933C42.798 6.79933 42.257 7.18227 42.0491 7.75C41.9166 8.11106 41.9336 8.50251 42.0965 8.8502C42.2582 9.1991 42.5475 9.4629 42.9098 9.59663L44.6555 10.2276C46.5411 10.9181 47.5112 13.0054 46.8255 14.8824C46.4353 15.9595 45.56 16.768 44.5048 17.1011V17.5071C44.5048 18.1113 44.0136 18.6 43.4119 18.6C42.8101 18.6 42.3178 18.1101 42.3178 17.5071V17.0901C41.7476 16.9126 41.22 16.616 40.7836 16.182C40.4553 15.855 40.1891 15.4635 39.9994 15.0235C39.76 14.4679 40.014 13.8236 40.5708 13.5853C41.1276 13.3397 41.7695 13.6047 42.009 14.1567C42.088 14.3402 42.1938 14.4983 42.3299 14.6308C42.6229 14.9238 43.0071 15.0842 43.4131 15.0842H43.4155C44.0197 15.0842 44.5644 14.7013 44.7722 14.1336C44.9047 13.7725 44.8877 13.3823 44.7248 13.0334C44.5631 12.6845 44.2726 12.4195 43.9115 12.2869L42.1658 11.656C40.2803 10.9655 39.3114 8.87816 39.997 7.00114C40.3873 5.92404 41.2625 5.11561 42.3202 4.78251V4.37647C42.3202 3.77106 42.8077 3.28235 43.4143 3.28235C44.0161 3.28235 44.5084 3.77227 44.5084 4.37647H44.506Z" fill="#64C9FF"/>
<path opacity="0.7" d="M8.46965 28.9414H2.11741C0.946954 28.9414 0 29.8885 0 31.0591V45.8826C0 47.0532 0.946954 48.0002 2.11741 48.0002H8.47082C9.64128 48.0002 10.5882 47.0532 10.5882 45.8826V31.0591C10.5871 29.8885 9.64011 28.9414 8.46965 28.9414Z" fill="#64C9FF"/>
</svg>
