<svg width="20" height="20" viewBox="0 0 24 27" fill="none" xmlns="http://www.w3.org/2000/svg">
<path d="M2.77239 27C2.31184 26.9992 1.85944 26.8811 1.4597 26.6574C0.559578 26.1585 0 25.19 0 24.1386V2.86153C0 1.80721 0.559578 0.841674 1.4597 0.342764C1.86896 0.112704 2.33389 -0.00560396 2.80588 0.000203994C3.27788 0.00601195 3.73961 0.135723 4.14283 0.37578L22.7342 11.2608C23.1216 11.4985 23.441 11.8285 23.6624 12.2199C23.8839 12.6113 24 13.0513 24 13.4986C24 13.9459 23.8839 14.3859 23.6624 14.7773C23.441 15.1687 23.1216 15.4987 22.7342 15.7364L4.13983 26.6243C3.72719 26.8684 3.25456 26.9982 2.77239 27Z" fill="#F25C63"/>
</svg>
